#!OML:ASF E:\acrobat2\Project_11_07_03\Capture day 1\Session 1\Acrobat.ASF
:FULLY-SPECIFIED
:DEGREES
421
root 11.0566 1.693 -4.45269 91.3665 -5.14779 -191.879
lowerback 13.7052 1.93247 -8.08188
upperback 15.4768 5.29956 -4.46236
thorax 9.16189 3.69035 -0.392066
lowerneck -2.6673 -1.54076 -2.37254
upperneck 21.6239 -0.829548 1.47227
head 7.05437 0.187314 0.902627
rclavicle 3.16813e-015 -7.1314e-015
rhumerus 16.8942 14.3652 -74.7264
rradius 47.6252
rwrist -6.95838
rhand -16.5536 -395.651
rfingers 7.12502
rthumb 9.66605 294.59
lclavicle 3.16813e-015 -7.1314e-015
lhumerus 34.4293 -40.6813 41.5304
lradius 33.4355
lwrist -6.03102
lhand -29.8106 -375.077
lfingers 7.12502
lthumb -3.13455 14.8799
rfemur -105.591 7.41898 27.4243
rtibia 40.8148
rfoot 174.345 9.75354
rtoes 8.81207
lfemur -105.894 14.2255 -37.0685
ltibia 40.2085
lfoot -186.538 3.80012
ltoes 31.5273
422
root 11.0501 1.71062 -4.52055 93.0735 -6.44942 -191.51
lowerback 14.3327 2.08414 -9.61572
upperback 15.8522 5.67363 -4.62275
thorax 9.25469 3.88197 0.231686
lowerneck -3.4535 -1.9716 -2.80007
upperneck 22.143 -1.34192 1.45138
head 7.37979 -0.0860785 0.935114
rclavicle -1.63997e-014 -1.68967e-014
rhumerus 15.9329 15.2612 -73.6485
rradius 45.4129
rwrist -10.4583
rhand -16.4486 -395.172
rfingers 7.12502
rthumb 9.76739 295.074
lclavicle -1.63997e-014 -1.68967e-014
lhumerus 35.2415 -42.787 41.5307
lradius 31.6525
lwrist -5.49374
lhand -29.8527 -375.957
lfingers 7.12502
lthumb -3.1752 13.9992
rfemur -103.797 5.54328 23.3993
rtibia 42.2578
rfoot 175.538 9.05317
rtoes 46.127
lfemur -103.063 13.8865 -38.6982
ltibia 39.4796
lfoot -185.907 3.13168
ltoes 31.9902
423
root 11.0458 1.73056 -4.5965 95.1136 -7.56568 -191.322
lowerback 14.8103 2.05595 -11.2162
upperback 16.0522 5.76235 -4.99672
thorax 9.27087 3.91634 0.67325
lowerneck -4.3699 -2.02915 -2.42951
upperneck 22.5391 -1.42971 1.34005
head 7.67191 -0.113223 0.827965
rclavicle -2.06736e-014 -3.95581e-014
rhumerus 14.5188 14.9021 -74.6329
rradius 44.5172
rwrist -11.5176
rhand -15.7435 -394.915
rfingers 7.12502
rthumb 10.4476 295.365
lclavicle -2.06736e-014 -3.95581e-014
lhumerus 34.8468 -44.023 41.7824
lradius 30.4829
lwrist -4.80573
lhand -28.5907 -375.184
lfingers 7.12502
lthumb -1.95637 14.7872
rfemur -102.585 4.75364 22.5429
rtibia 39.9163
rfoot 177.457 10.6149
rtoes 40.9229
lfemur -100.623 13.5781 -39.7664
ltibia 39.5162
lfoot -184.898 2.61387
ltoes 33.7497
424
root 11.0355 1.75428 -4.68514 97.6371 -8.38957 -191.325
lowerback 14.8827 1.74053 -12.9831
upperback 16.0642 5.35183 -5.3317
thorax 9.32522 3.6079 1.29399
lowerneck -5.01948 -1.61512 -2.01399
upperneck 22.5105 -0.890019 1.12583
head 7.76405 0.132208 0.724867
rclavicle 1.75924e-014 -4.13472e-014
rhumerus 13.4215 14.9879 -76.1384
rradius 43.9408
rwrist -10.8803
rhand -14.9025 -394.467
rfingers 7.12502
rthumb 11.2588 295.855
lclavicle 1.75924e-014 -4.13472e-014
lhumerus 32.6719 -44.0499 43.0636
lradius 29.6228
lwrist -3.99441
lhand -27.1787 -374.419
lfingers 7.12502
lthumb -0.5927 15.5598
rfemur -102.16 4.17427 21.8385
rtibia 37.4801
rfoot 176.594 11.6809
rtoes 42.3809
lfemur -99.147 12.9789 -41.091
ltibia 38.3135
lfoot -185.646 2.48895
ltoes 23.3496
425
root 11.0191 1.77798 -4.78526 100.599 -8.8205 -191.447
lowerback 14.7445 1.51155 -14.1575
upperback 15.8953 5.02151 -5.55087
thorax 9.26864 3.35175 1.71379
lowerneck -5.0045 -1.34459 -1.66856
upperneck 21.7747 -0.606882 0.973693
head 7.50975 0.236062 0.628529
rclavicle -7.25564e-015 -2.56432e-014
rhumerus 12.2716 15.3568 -76.9025
rradius 43.1782
rwrist -9.57039
rhand -14.6933 -393.898
rfingers 7.12502
rthumb 11.4605 296.435
lclavicle -7.25564e-015 -2.56432e-014
lhumerus 30.88 -44.3346 43.9982
lradius 29.1481
lwrist -2.81267
lhand -28.9893 -374.761
lfingers 7.12502
lthumb -2.3414 15.2063
rfemur -102.31 3.76021 21.4738
rtibia 34.684
rfoot 174.788 11.9429
rtoes 47.9289
lfemur -98.3801 12.2625 -41.6758
ltibia 37.9967
lfoot -185.14 2.60719
ltoes 29.3573
426
root 11.0081 1.79938 -4.88623 103.665 -8.81726 -191.455
lowerback 14.7596 1.35061 -14.7054
upperback 15.6884 4.75378 -5.62504
thorax 9.05675 3.17444 1.9369
lowerneck -4.59332 -1.20744 -1.81028
upperneck 20.504 -0.597055 1.37674
head 7.02139 0.203497 0.769028
rclavicle -3.27001e-014 4.35338e-014
rhumerus 11.0659 15.8639 -77.0626
rradius 42.4029
rwrist -8.00698
rhand -14.5048 -393.325
rfingers 7.12502
rthumb 11.6423 297.018
lclavicle -3.27001e-014 4.35338e-014
lhumerus 29.524 -44.6827 44.7005
lradius 28.9548
lwrist -1.6637
lhand -28.7818 -374.896
lfingers 7.12502
lthumb -2.14094 15.0732
rfemur -102.884 3.36541 20.7713
rtibia 34.0343
rfoot 175.319 12.3735
rtoes 51.593
lfemur -98.1296 11.4316 -42.087
ltibia 37.1828
lfoot -185.063 2.07961
ltoes 28.1704
427
root 10.9982 1.8183 -4.97332 106.315 -8.39771 -191.259
lowerback 15.432 1.17895 -14.7045
upperback 15.6101 4.45257 -5.65782
thorax 8.64253 3.07449 1.88286
lowerneck -4.17833 -1.08603 -2.10092
upperneck 19.1155 -0.654384 2.12524
head 6.5041 0.150762 1.0378
rclavicle 9.93923e-015 1.98785e-015
rhumerus 10.0683 16.4658 -76.9811
rradius 41.8152
rwrist -6.84265
rhand -14.2339 -392.427
rfingers 7.12502
rthumb 11.9036 297.931
lclavicle 9.93923e-015 1.98785e-015
lhumerus 28.4388 -44.6451 45.1752
lradius 28.8932
lwrist -0.694883
lhand -27.6799 -374.984
lfingers 7.12502
lthumb -1.07676 14.9933
rfemur -102.754 3.06702 20.5916
rtibia 33.8426
rfoot 175.075 12.1681
rtoes 53.7254
lfemur -97.5831 10.7421 -41.7704
ltibia 36.719
lfoot -185.048 2.13076
ltoes 29.1568
428
root 10.9776 1.83476 -5.04514 108.581 -7.48724 -191.023
lowerback 16.8429 1.05421 -14.0527
upperback 15.4821 4.12421 -5.64874
thorax 7.75649 3.05026 1.4864
lowerneck -3.89674 -1.06286 -2.10868
upperneck 18.2561 -0.741406 2.45171
head 6.18365 0.094745 1.12726
rclavicle 4.59193e-014 5.12864e-014
rhumerus 9.11731 17.1255 -76.8855
rradius 41.3063
rwrist -6.15557
rhand -14.2864 -391.8
rfingers 7.12502
rthumb 11.8529 298.556
lclavicle 4.59193e-014 5.12864e-014
lhumerus 27.3518 -44.3546 45.7516
lradius 28.714
lwrist -0.483879
lhand -26.7468 -375.312
lfingers 7.12502
lthumb -0.175494 14.6678
rfemur -102.115 3.03939 20.8492
rtibia 34.1174
rfoot 175.786 12.672
rtoes 54.7506
lfemur -96.9175 10.2894 -40.8881
ltibia 36.5544
lfoot -184.945 2.19275
ltoes 31.3586
429
root 10.9571 1.85327 -5.10462 110.588 -6.08101 -190.6
lowerback 18.7965 0.972775 -12.8697
upperback 15.3347 3.83186 -5.48577
thorax 6.54782 3.08873 0.938175
lowerneck -4.00064 -1.24987 -1.69228
upperneck 17.871 -1.02005 2.08842
head 6.08251 -0.0642165 0.919458
rclavicle -1.15295e-014 -3.1408e-014
rhumerus 8.3016 17.4754 -76.8417
rradius 40.6819
rwrist -5.6914
rhand -14.4195 -391.699
rfingers 7.12502
rthumb 11.7246 298.649
lclavicle -1.15295e-014 -3.1408e-014
lhumerus 26.476 -43.8867 46.3808
lradius 28.3383
lwrist -1.06026
lhand -26.1757 -376.011
lfingers 7.12502
lthumb 0.376022 13.9687
rfemur -101.19 3.20581 21.7888
rtibia 34.2388
rfoot 175.441 12.2869
rtoes 58.2623
lfemur -96.1809 10.0509 -39.443
ltibia 36.571
lfoot -184.558 2.34862
ltoes 32.9755
